<?xml version="1.0" encoding="utf-8"?>
<!-- Generator: Adobe Illustrator 17.0.0, SVG Export Plug-In . SVG Version: 6.00 Build 0)  -->
<!DOCTYPE svg PUBLIC "-//W3C//DTD SVG 1.1//EN" "http://www.w3.org/Graphics/SVG/1.1/DTD/svg11.dtd">
<svg version="1.1" id="Layer_1" xmlns="http://www.w3.org/2000/svg" xmlns:xlink="http://www.w3.org/1999/xlink" x="0px" y="0px"
	 width="36px" height="36px" viewBox="-0.857 -1 36 36" enable-background="new -0.857 -1 36 36" xml:space="preserve">
<path fill="none" d="M2.8,34h28.4c1.546,0,2.8-1.254,2.8-2.8V2.8C34,1.254,32.746,0,31.2,0H2.8C1.254,0,0,1.254,0,2.8v28.4
	C0,32.746,1.254,34,2.8,34"/>
<path fill="none" d="M31.823,0H2.85C1.464,0,0.287,1.096,0.287,2.446v29.105c0,1.351,1.177,2.447,2.563,2.447h28.973
	c1.388,0,2.463-1.096,2.463-2.447V2.446C34.286,1.096,33.21,0,31.823,0"/>
<path fill="#0073B0" d="M31.486,0h-28.4c-1.546,0-2.8,1.254-2.8,2.8v28.4c0,1.546,1.254,2.8,2.8,2.8h28.4c1.546,0,2.8-1.254,2.8-2.8
	V2.8C34.286,1.254,33.032,0,31.486,0z M10.286,29.25H5.161v-16.5h5.125V29.25z M7.786,10.55c-1.684,0-3.05-1.366-3.05-3.05
	c0-1.685,1.366-3.05,3.05-3.05s3.05,1.365,3.05,3.05C10.836,9.184,9.47,10.55,7.786,10.55z M29.286,29h-5v-8.016
	c0-2.656-0.519-4.109-2.458-4.109c-2.621,0-3.542,1.992-3.542,4.109V29h-5V13h4.75v2.391c0.637-1.277,2.492-2.641,4.945-2.641
	c4.702,0,6.305,2.125,6.305,7.172V29z"/>
</svg>
